<?xml version="1.0" standalone="no"?>
<!DOCTYPE svg PUBLIC "-//W3C//DTD SVG 20010904//EN"
 "http://www.w3.org/TR/2001/REC-SVG-20010904/DTD/svg10.dtd">
<svg version="1.0" xmlns="http://www.w3.org/2000/svg"
 width="560.000000pt" height="560.000000pt" viewBox="0 0 560.000000 560.000000"
 preserveAspectRatio="xMidYMid meet">

<g transform="translate(0.000000,560.000000) scale(0.100000,-0.100000)"
fill="#000000" stroke="none">
<path d="M890 5565 c0 -38 -24 -95 -40 -95 -6 0 -10 -22 -10 -48 0 -26 -5 -53
-11 -59 -8 -8 -6 -17 10 -34 12 -13 24 -35 27 -49 15 -66 26 -92 35 -79 7 11
9 9 9 -7 0 -11 5 -25 10 -30 18 -18 -25 -51 -74 -58 -25 -4 -46 -12 -46 -17 0
-6 5 -7 10 -4 18 11 31 -5 20 -24 -12 -23 5 -41 38 -41 13 0 20 -4 17 -10 -4
-6 11 -10 37 -10 64 0 87 -9 94 -37 7 -27 -24 -69 -62 -83 -25 -10 -34 -51
-34 -152 0 -54 3 -68 15 -68 11 0 15 -12 15 -45 0 -40 -4 -48 -31 -64 -20 -13
-26 -21 -17 -24 10 -4 9 -9 -5 -20 -16 -13 -16 -16 -4 -24 8 -4 17 -19 19 -33
3 -22 0 -25 -22 -22 -14 2 -33 11 -42 19 -16 15 -18 15 -18 0 0 -21 79 -58
110 -51 20 5 22 3 10 -5 -8 -6 -10 -11 -5 -12 62 -5 80 -26 80 -93 1 -58 32
-111 70 -118 18 -3 19 -12 21 -128 1 -69 5 -144 9 -168 5 -30 3 -54 -9 -82
-21 -53 -20 -114 2 -153 9 -18 20 -34 24 -37 3 -3 10 -17 13 -33 4 -15 11 -24
16 -21 16 10 9 48 -16 89 -29 47 -35 129 -10 139 8 3 15 16 15 28 0 32 11 68
20 68 5 0 13 -12 19 -27 13 -33 32 -65 45 -75 6 -3 2 -26 -8 -52 l-18 -46 31
-36 c17 -19 31 -38 32 -42 2 -22 11 -170 10 -187 0 -11 1 -45 1 -75 3 -87 2
-190 -2 -255 -3 -47 1 -69 19 -103 28 -54 61 -159 61 -194 0 -15 5 -30 10 -33
6 -3 10 -15 10 -25 0 -11 6 -34 14 -52 8 -18 19 -51 25 -73 6 -22 13 -50 16
-62 6 -21 3 -22 -48 -21 l-55 1 -6 39 c-4 24 -12 38 -21 38 -11 0 -15 11 -15
40 0 27 -7 48 -20 62 -21 23 -26 53 -10 63 6 3 10 44 10 90 0 46 -4 87 -10 90
-5 3 -10 41 -10 84 0 117 -12 261 -21 261 -5 0 -9 -13 -9 -29 0 -17 -5 -33
-10 -36 -6 -4 -7 -12 -3 -18 5 -7 11 -75 15 -152 4 -77 10 -169 14 -204 4 -40
2 -67 -5 -74 -19 -19 -12 -66 14 -105 14 -20 25 -43 25 -52 0 -8 7 -28 15 -44
19 -35 19 -64 0 -96 -21 -36 -21 -253 0 -270 8 -6 17 -22 21 -33 10 -31 82
-127 144 -192 16 -16 35 -42 42 -56 21 -41 59 -89 103 -132 52 -51 77 -67 111
-73 71 -11 85 -16 81 -28 -3 -7 -1 -19 3 -27 7 -10 11 -7 19 12 5 14 23 32 40
39 26 10 31 18 31 46 0 18 -4 35 -9 39 -5 3 -14 20 -20 38 -5 17 -24 79 -41
137 -18 58 -38 112 -44 120 -7 8 -24 41 -39 73 -15 31 -38 81 -51 110 -16 33
-27 80 -32 132 -3 44 -10 85 -14 90 -4 6 -11 42 -15 80 -4 39 -11 75 -17 82
-5 6 -12 38 -15 70 -3 32 -15 87 -28 123 -26 73 -55 263 -50 328 3 47 19 72
45 72 10 0 20 6 23 13 8 20 -3 65 -19 78 -17 14 -18 43 -3 72 7 11 13 57 15
101 6 150 16 231 29 246 7 8 15 45 18 82 3 44 11 75 23 91 11 13 38 48 60 78
55 71 159 179 173 179 6 0 18 11 27 25 9 14 22 25 30 25 7 0 26 16 41 35 15
19 33 35 40 35 6 0 13 5 15 11 2 6 46 11 116 11 62 0 115 5 118 9 3 5 18 9 35
9 16 0 29 5 29 10 0 6 20 10 44 10 25 0 47 4 51 9 3 6 13 9 23 9 9 -1 37 8 61
20 25 12 53 22 62 22 10 0 21 5 24 10 3 6 15 10 26 10 11 0 30 6 42 12 13 8
60 13 117 13 68 0 104 5 126 16 22 11 37 13 48 7 10 -5 24 -7 31 -4 8 3 17 1
20 -4 4 -6 19 -10 35 -10 16 0 31 -4 35 -9 3 -5 18 -12 34 -16 16 -3 37 -15
47 -26 9 -10 23 -19 31 -19 7 0 13 -4 13 -8 0 -7 12 -21 116 -134 25 -27 67
-58 98 -72 58 -27 81 -55 73 -89 -3 -12 1 -40 9 -62 7 -22 14 -59 14 -81 0
-24 6 -47 15 -54 9 -8 12 -22 8 -40 -6 -32 20 -119 49 -162 10 -14 18 -31 18
-37 0 -6 4 -11 10 -11 10 0 37 -54 42 -85 4 -24 -33 -33 -66 -17 -38 18 -84
22 -95 8 -8 -9 -38 -14 -91 -15 -43 -1 -89 -5 -102 -10 -13 -6 -17 -10 -10
-10 7 -1 11 -5 8 -10 -7 -10 -40 -8 -69 4 -10 4 -24 2 -32 -5 -9 -7 -18 -11
-21 -8 -9 10 -95 -11 -110 -27 -9 -8 -24 -15 -34 -15 -10 0 -34 -18 -54 -40
-20 -22 -40 -40 -46 -40 -5 0 -10 -9 -10 -19 0 -12 -9 -21 -26 -25 -18 -5 -23
-10 -16 -19 5 -7 10 -27 10 -46 1 -48 12 -52 12 -4 0 28 5 43 16 47 14 5 15 2
9 -21 -5 -16 -9 -38 -10 -51 -1 -12 -6 -21 -10 -20 -17 5 -24 -65 -9 -94 8
-15 14 -45 14 -67 0 -22 5 -43 11 -46 6 -4 9 -24 8 -46 -2 -21 0 -41 4 -45 4
-4 7 0 7 9 0 10 5 17 10 17 6 0 10 -5 10 -11 0 -7 16 -32 36 -55 27 -34 42
-44 65 -44 27 0 29 3 29 38 0 20 -7 46 -15 56 -13 17 -13 23 -1 41 10 15 12
46 10 110 -2 50 -4 101 -4 115 0 30 33 60 66 60 54 0 184 61 184 86 0 6 18 14
40 18 23 3 43 13 46 21 10 25 28 17 47 -21 19 -39 22 -74 7 -74 -5 0 -9 3 -7
8 1 4 -1 8 -6 10 -4 1 -8 -1 -8 -5 -1 -5 -13 -13 -27 -18 l-26 -11 24 -22 c13
-12 30 -22 37 -22 19 0 16 -17 -4 -25 -69 -26 -175 -27 -153 0 5 6 7 15 3 18
-10 11 -61 8 -68 -4 -4 -6 -13 -8 -21 -5 -8 3 -14 -1 -14 -9 0 -8 -7 -15 -15
-15 -8 0 -15 -4 -15 -9 0 -5 -13 -23 -30 -41 -28 -30 -30 -36 -28 -112 1 -86
7 -95 51 -79 21 8 27 17 27 41 0 16 5 30 11 30 6 0 8 -7 5 -15 -6 -17 13 -55
27 -55 4 0 5 4 2 10 -4 6 8 10 29 10 20 0 36 5 36 11 0 8 4 8 13 1 6 -5 42
-13 80 -17 65 -7 94 -25 40 -25 -16 0 -55 -4 -88 -9 l-60 -8 55 -3 c30 -2 63
-3 73 -2 29 3 19 -16 -13 -23 -35 -8 -35 -9 -13 -35 12 -13 30 -20 55 -20 41
0 52 16 16 23 -13 2 2 5 33 6 59 1 98 16 133 50 12 11 36 34 54 51 18 16 29
30 25 30 -4 0 -2 5 4 11 7 7 21 6 46 -4 30 -13 38 -13 54 -1 10 7 27 14 38 14
12 0 26 5 33 12 9 9 12 9 12 0 0 -8 19 -12 56 -12 52 0 56 -2 65 -30 6 -16 19
-32 30 -35 12 -4 19 -15 19 -30 0 -13 5 -36 10 -51 9 -22 7 -31 -10 -49 -16
-17 -20 -35 -20 -83 0 -51 -3 -63 -20 -72 -11 -6 -20 -19 -20 -30 0 -10 -18
-34 -39 -52 -38 -32 -40 -38 -50 -112 -5 -43 -16 -85 -24 -94 -19 -22 -30 -65
-31 -129 -1 -40 -7 -57 -24 -73 -12 -11 -22 -33 -23 -48 -1 -42 -23 -107 -37
-108 -7 -1 -19 -2 -27 -3 -8 0 -15 -7 -15 -15 0 -31 -42 -46 -127 -46 -66 0
-83 -3 -83 -14 0 -21 -11 -26 -72 -31 -44 -4 -63 -1 -104 20 -68 34 -104 33
-143 -7 -17 -17 -31 -35 -31 -39 0 -6 -106 -10 -274 -10 -16 0 -35 -4 -43 -10
-15 -13 -75 -7 -119 11 -27 12 -40 11 -86 -3 -29 -10 -68 -27 -87 -38 -35 -21
-61 -19 -61 5 0 10 -10 14 -30 14 -16 -1 -30 -5 -30 -9 0 -5 -7 -6 -15 -3 -8
4 -15 1 -15 -5 0 -6 -3 -10 -7 -9 -5 1 -32 -4 -61 -11 -60 -15 -74 -9 -97 45
-7 18 -22 37 -33 43 -13 7 -22 26 -27 58 -4 31 -15 55 -31 70 -19 18 -24 32
-24 72 0 39 -4 53 -21 65 -12 8 -28 12 -35 9 -19 -7 -42 13 -65 59 l-19 38
-74 0 -73 0 -11 -38 c-19 -63 0 -186 44 -280 9 -18 13 -40 10 -48 -3 -9 3 -35
14 -59 11 -24 20 -49 20 -55 0 -6 8 -22 17 -37 13 -19 17 -47 16 -112 -1 -167
2 -159 -46 -166 -37 -6 -89 -27 -139 -55 -10 -6 -26 -14 -35 -19 -19 -9 -31
-51 -15 -51 5 0 15 7 22 15 21 25 28 8 18 -41 -7 -34 -7 -58 3 -92 18 -65 16
-146 -5 -167 -9 -9 -16 -25 -16 -34 0 -10 -9 -30 -20 -44 -11 -14 -20 -29 -20
-34 0 -4 -15 -24 -33 -43 -67 -72 -119 -174 -171 -334 -53 -162 -58 -192 -54
-353 2 -124 0 -152 -13 -173 -10 -14 -20 -35 -24 -47 l-6 -23 146 0 c83 0 144
4 141 9 -7 11 21 81 33 81 4 0 24 16 44 35 29 28 44 35 75 35 24 0 49 8 65 20
48 38 121 24 196 -38 60 -49 123 -92 137 -92 6 0 21 -11 34 -25 22 -24 29 -25
141 -25 l117 0 59 55 c32 30 72 68 89 85 49 48 94 54 184 24 159 -54 399 -61
474 -14 18 11 40 20 48 20 17 0 78 -61 78 -78 0 -7 7 -12 15 -12 8 0 15 -7 15
-14 0 -8 15 -26 33 -40 31 -24 35 -24 231 -25 l198 -1 52 55 c28 30 66 60 84
66 39 13 72 65 107 170 34 102 43 116 82 134 31 15 38 15 87 1 49 -14 61 -25
121 -97 69 -83 93 -99 149 -99 46 0 108 63 152 156 19 40 40 79 47 86 38 39
78 314 48 332 -6 4 -11 18 -11 32 0 13 -3 23 -7 23 -5 -1 -11 0 -15 1 -5 1
-13 3 -20 4 -7 0 -23 23 -38 51 -14 27 -31 56 -37 63 -7 7 -13 20 -13 28 0 8
-4 14 -10 14 -5 0 -10 5 -10 11 0 7 -10 21 -23 33 -31 29 -65 71 -49 62 30
-17 8 12 -28 37 -22 16 -40 32 -40 37 0 5 -7 6 -17 3 -10 -4 -14 -2 -10 4 7
11 -64 73 -83 73 -7 0 -24 8 -38 19 -35 24 -129 68 -167 77 -16 4 -44 15 -61
24 -17 10 -46 21 -65 25 -19 4 -38 11 -44 15 -5 5 -26 12 -45 17 l-35 9 0 85
c0 71 5 93 28 140 15 30 30 71 33 90 4 19 11 43 17 54 6 11 11 64 13 117 3
126 18 155 83 163 26 3 57 12 71 20 14 8 39 21 55 29 17 8 39 24 50 36 11 11
28 28 38 38 9 9 17 22 17 29 0 7 4 13 10 13 17 0 49 89 80 225 6 28 15 66 20
85 12 44 12 283 1 333 -5 21 -22 52 -38 68 -23 23 -36 28 -76 29 -33 0 -49 -5
-53 -15 -4 -8 -11 -15 -18 -15 -7 0 -29 -23 -50 -51 -27 -34 -42 -47 -49 -40
-8 8 -4 18 10 33 34 36 43 73 43 174 0 87 1 94 20 94 17 0 20 7 20 49 0 33 -5
51 -14 54 -11 5 -14 -3 -13 -33 1 -22 -2 -39 -8 -39 -9 -1 -10 19 -5 102 1 21
7 21 44 -2 28 -16 30 -20 27 -73 -2 -53 0 -57 36 -91 28 -27 43 -35 60 -31 21
6 22 4 17 -25 -7 -32 11 -45 22 -16 13 33 23 11 27 -57 l3 -73 2 78 c2 76 3
78 30 88 32 11 57 48 67 101 6 34 5 36 -22 42 -16 4 -44 20 -62 36 -30 28 -36
30 -85 24 -45 -5 -58 -3 -92 18 -21 14 -51 28 -66 31 -30 8 -48 48 -48 110 0
23 -7 48 -16 58 -13 15 -14 24 -4 53 8 26 15 33 27 29 11 -4 14 -2 9 5 -5 8 0
12 13 12 27 0 32 11 15 40 -9 17 -13 20 -14 9 0 -9 -10 -19 -22 -22 -32 -9
-36 2 -9 22 30 23 22 51 -15 51 -15 0 -34 8 -43 18 -9 10 -23 21 -31 24 -11 4
-20 31 -28 82 -7 41 -17 78 -23 81 -5 4 -9 17 -9 31 0 16 -16 40 -45 68 -25
25 -45 49 -45 56 0 6 -13 23 -29 38 -32 29 -54 113 -44 164 9 47 -4 78 -32 78
-14 0 -25 4 -25 10 0 14 -37 31 -71 32 -27 1 -29 4 -29 40 0 22 8 53 17 68 13
23 14 34 5 52 -11 23 -11 23 -11 -4 -1 -18 -6 -28 -16 -28 -8 0 -15 -6 -15
-12 0 -19 -64 -16 -84 5 -10 9 -26 17 -36 17 -24 0 -48 34 -56 80 -4 19 -14
43 -22 53 -11 12 -16 40 -17 87 -1 40 -7 75 -14 84 -16 19 -62 21 -79 4 -8 -8
-15 -8 -26 1 -12 10 -14 9 -9 -8 3 -12 9 -18 14 -15 20 12 7 -32 -17 -57 -24
-25 -27 -26 -55 -12 -23 11 -37 12 -59 4 -26 -9 -33 -7 -51 12 -15 15 -23 18
-26 10 -10 -26 -35 -7 -94 70 -20 27 -25 28 -72 23 -42 -6 -48 -4 -43 10 3 8
6 17 6 19 0 2 10 1 21 -2 16 -4 20 -2 17 8 -7 20 -57 24 -64 5 -5 -13 -22 -16
-79 -16 -56 0 -74 -4 -79 -15 -8 -22 -34 -18 -60 10 -28 31 -52 32 -75 4 -16
-20 -32 -22 -185 -30 -184 -9 -197 -11 -241 -44 -41 -31 -88 -41 -165 -35
l-65 5 -3 63 c-2 51 0 62 13 62 8 0 15 8 14 18 0 10 -3 12 -6 5 -8 -20 -23
-15 -23 7 0 11 4 20 9 20 5 0 17 7 25 16 26 26 18 164 -10 164 -16 0 -34 31
-34 59 0 10 -4 21 -8 23 -12 4 -63 169 -69 221 -3 23 -13 59 -22 79 l-16 37
-128 1 -129 0 7 -32 c4 -17 16 -47 26 -65 11 -19 19 -42 19 -53 0 -28 -32 -90
-46 -90 -16 0 -31 67 -24 105 6 33 -25 94 -47 95 -7 0 -13 9 -13 20 0 19 -7
20 -233 20 -221 0 -235 -1 -252 -20 -10 -11 -25 -20 -34 -20 -9 0 -22 9 -29
20 -10 17 -23 20 -82 20 l-70 0 0 -35z m1173 -450 c4 -8 2 -17 -3 -20 -6 -4
-10 3 -10 14 0 25 6 27 13 6z m-1128 -45 c-3 -5 -17 -10 -31 -10 -14 0 -22 4
-19 10 3 6 17 10 31 10 14 0 22 -4 19 -10z m1128 -10 c3 -11 1 -23 -4 -26 -5
-3 -9 6 -9 20 0 31 6 34 13 6z m-1126 -342 c-3 -7 -5 -2 -5 12 0 14 2 19 5 13
2 -7 2 -19 0 -25z m713 -98 c0 -11 -4 -20 -10 -20 -5 0 -10 9 -10 20 0 11 5
20 10 20 6 0 10 -9 10 -20z m-697 -177 c7 -9 5 -13 -7 -13 -11 0 -16 8 -15 28
0 15 3 21 6 12 3 -8 10 -21 16 -27z m2160 -970 c-7 -2 -19 -2 -25 0 -7 3 -2 5
12 5 14 0 19 -2 13 -5z m-161 -145 c-6 -6 -7 0 -4 19 5 21 7 23 10 9 2 -10 0
-22 -6 -28z m1568 -46 c0 -8 -9 -12 -22 -10 -30 4 -33 23 -3 23 14 0 25 -6 25
-13z m-985 -202 c-3 -5 -10 -10 -16 -10 -5 0 -9 5 -9 10 0 6 7 10 16 10 8 0
12 -4 9 -10z m-261 -26 c10 -26 7 -34 -14 -34 -13 0 -20 7 -20 18 0 33 23 44
34 16z m1093 -323 c9 -41 41 -107 58 -121 18 -15 18 -14 15 66 -2 73 15 93 24
29 8 -52 23 -66 43 -39 11 16 12 12 7 -31 -4 -28 -10 -54 -14 -60 -4 -5 -11
-38 -15 -72 -4 -39 -11 -62 -18 -60 -7 1 -13 -15 -15 -38 -2 -22 -8 -44 -13
-49 -5 -6 -9 -18 -9 -28 0 -10 -7 -21 -15 -24 -8 -4 -15 -12 -15 -20 0 -16
-43 -64 -58 -64 -5 0 -12 -7 -15 -14 -3 -8 -22 -18 -41 -21 -19 -4 -37 -13
-40 -21 -3 -9 -20 -14 -43 -13 -33 0 -35 1 -15 9 27 11 29 30 3 30 -11 0 -23
5 -26 10 -3 6 -14 10 -24 10 -21 0 -36 -41 -20 -51 8 -5 8 -9 0 -13 -6 -4 -11
-14 -11 -23 0 -9 -7 -24 -15 -33 -11 -12 -15 -43 -16 -118 -1 -73 -5 -104 -15
-113 -8 -6 -14 -26 -14 -43 0 -17 -7 -44 -15 -60 -8 -15 -15 -37 -15 -47 0
-11 -4 -19 -9 -19 -4 0 -13 -30 -19 -66 -6 -37 -13 -69 -16 -71 -3 -3 -19 5
-35 17 -30 21 -31 23 -25 78 6 57 23 112 35 112 10 0 19 55 28 167 6 62 16
114 26 135 14 27 18 64 19 201 2 109 6 171 14 179 21 21 39 -9 46 -78 9 -86
28 -124 63 -124 34 0 52 26 53 77 0 23 5 45 10 48 18 11 11 33 -12 41 -28 8
-38 22 -38 50 0 12 -7 35 -15 50 -24 47 -20 74 13 75 44 2 53 -1 78 -29 29
-34 30 -50 3 -54 -31 -4 -49 -35 -29 -48 8 -5 25 -10 38 -10 21 0 22 -1 7 -24
-15 -23 -15 -24 12 -29 40 -7 46 -2 70 61 29 76 34 156 10 160 -12 3 -17 13
-17 38 0 19 -5 34 -11 34 -23 0 -49 43 -49 81 0 31 4 38 23 41 26 5 64 -33 74
-71z m-287 -132 c0 -11 -4 -17 -10 -14 -5 3 -10 13 -10 21 0 8 5 14 10 14 6 0
10 -9 10 -21z m207 -131 c-3 -8 -6 -5 -6 6 -1 11 2 17 5 13 3 -3 4 -12 1 -19z
m-2889 -265 c3 -17 -1 -20 -17 -16 -26 7 -29 46 -3 41 9 -2 18 -13 20 -25z
m-8 -52 c0 -11 41 -53 69 -69 28 -16 37 -10 51 32 17 52 39 54 80 8 19 -21 47
-42 61 -45 32 -8 53 -47 51 -95 -1 -29 5 -42 25 -58 25 -22 48 -99 37 -127 -8
-22 -73 -38 -95 -24 -10 6 -19 15 -19 19 0 4 -13 14 -30 23 -16 9 -30 22 -30
29 0 7 -7 19 -16 27 -8 7 -23 27 -32 45 -19 36 -72 103 -117 149 -29 29 -65
79 -65 90 0 3 7 5 15 5 8 0 15 -4 15 -9z m2250 -257 c16 -40 12 -60 -16 -94
-24 -28 -26 -36 -19 -85 5 -43 3 -61 -11 -85 -16 -26 -17 -36 -6 -88 15 -74
15 -103 0 -100 -9 2 -14 -13 -16 -47 -1 -27 -7 -60 -13 -72 -12 -23 -92 -59
-109 -48 -6 4 -30 -5 -55 -19 -24 -14 -55 -26 -68 -26 -14 0 -30 -7 -38 -16
-9 -11 -29 -15 -83 -13 -39 1 -110 -2 -157 -6 -97 -9 -139 -2 -139 21 0 9 -8
18 -19 21 -17 4 -41 41 -41 63 0 11 56 70 67 70 5 0 14 9 21 21 9 14 19 18 32
14 13 -4 20 -2 20 6 0 9 3 10 11 2 6 -6 25 -7 52 -2 23 4 72 8 110 9 38 0 67
4 67 10 0 14 33 13 48 -2 9 -9 15 -9 24 0 7 7 20 12 29 12 9 0 22 6 28 14 7 8
26 18 42 21 20 5 29 13 29 26 0 10 9 33 20 51 24 40 29 144 6 135 -8 -3 -32
-11 -55 -18 -23 -7 -41 -16 -41 -20 0 -5 -20 -14 -45 -20 -25 -6 -45 -15 -45
-19 0 -4 -15 -13 -32 -20 -18 -6 -45 -18 -60 -26 -31 -17 -38 -17 -38 -4 0 5
15 17 33 25 30 14 30 15 5 10 -16 -3 -28 -1 -28 5 0 5 15 10 34 10 19 0 37 4
40 9 9 13 -8 17 -59 13 -36 -3 -45 -8 -45 -23 0 -15 -7 -19 -35 -19 -19 0 -54
-6 -77 -14 -81 -26 -93 -27 -111 -6 -9 11 -29 20 -45 20 -28 0 -72 31 -72 51
0 6 -6 9 -12 6 -7 -2 -12 -12 -10 -21 2 -11 -5 -20 -18 -23 -16 -4 -18 -8 -8
-14 7 -5 23 -9 34 -9 12 0 28 -7 35 -16 13 -16 9 -16 -44 -10 -69 9 -126 31
-134 51 -3 8 -11 15 -19 15 -8 0 -14 5 -14 10 0 9 14 12 37 9 3 0 10 6 15 15
5 10 22 16 41 16 18 0 38 5 44 11 7 7 36 9 79 5 92 -8 113 -9 152 -6 55 5 47
20 -10 20 l-53 0 29 15 c15 8 44 15 62 15 19 0 34 3 34 8 0 4 18 6 40 4 22 -2
40 -9 40 -14 0 -19 109 2 172 33 10 5 72 9 138 9 l120 0 35 36 c39 39 41 50
20 78 -22 29 -19 36 15 36 24 0 33 -6 40 -26z m-655 -34 c3 -5 -1 -10 -9 -10
-9 0 -16 5 -16 10 0 6 4 10 9 10 6 0 13 -4 16 -10z m156 -56 c20 -12 -32 -33
-83 -34 -26 0 -49 -4 -52 -9 -11 -17 -100 -21 -151 -7 -27 8 -48 15 -45 16 3
0 34 12 70 25 56 21 78 24 157 21 51 -3 98 -8 104 -12z m-28 -261 c-7 -2 -21
-2 -30 0 -10 3 -4 5 12 5 17 0 24 -2 18 -5z"/>
<path d="M4372 2540 c0 -14 2 -19 5 -12 2 6 2 18 0 25 -3 6 -5 1 -5 -13z"/>
<path d="M4371 2494 c0 -11 3 -14 6 -6 3 7 2 16 -1 19 -3 4 -6 -2 -5 -13z"/>
<path d="M3055 1710 c-3 -5 3 -10 14 -10 12 0 21 5 21 10 0 6 -6 10 -14 10 -8
0 -18 -4 -21 -10z"/>
<path d="M2725 1640 c3 -5 8 -10 11 -10 2 0 4 5 4 10 0 6 -5 10 -11 10 -5 0
-7 -4 -4 -10z"/>
<path d="M2920 1222 c0 -5 14 -9 30 -10 17 0 40 -4 51 -7 15 -5 20 -3 17 6 -5
16 -98 26 -98 11z"/>
<path d="M4000 5567 c0 -26 4 -37 15 -37 12 0 14 7 9 28 -11 44 -24 50 -24 9z"/>
<path d="M4165 5566 c-8 -38 -35 -76 -55 -76 -5 0 -10 5 -10 10 0 6 -6 10 -14
10 -8 0 -22 7 -30 16 -15 14 -16 13 -16 -9 0 -16 8 -28 25 -35 14 -6 25 -16
25 -21 0 -4 19 -11 41 -15 59 -9 72 5 63 68 -3 28 -10 60 -14 71 -6 17 -9 13
-15 -19z m0 -76 c3 -6 -1 -7 -9 -4 -18 7 -21 14 -7 14 6 0 13 -4 16 -10z"/>
<path d="M560 5492 c-33 -18 -60 -66 -45 -80 4 -4 10 -1 12 6 4 9 15 3 34 -19
l29 -32 14 33 c8 19 12 41 9 49 -2 9 4 4 13 -11 32 -48 46 -27 22 29 -21 48
-36 52 -88 25z"/>
<path d="M603 5355 c-14 -29 -22 -35 -47 -35 -32 0 -65 -15 -55 -25 9 -8 74
-9 87 -1 7 4 12 16 12 27 0 10 7 19 15 19 8 0 19 9 25 19 13 26 13 31 -5 31
-9 0 -23 -16 -32 -35z"/>
<path d="M4425 5350 c-10 -16 24 -62 41 -56 8 3 14 1 14 -3 0 -5 -6 -12 -12
-14 -7 -3 -3 -6 9 -6 29 -1 36 13 29 55 -6 31 -10 34 -41 34 -19 0 -37 -5 -40
-10z"/>
<path d="M683 5241 c-10 -16 -10 -23 3 -36 23 -22 39 -14 39 21 0 35 -25 43
-42 15z"/>
<path d="M2417 5192 c-23 -25 -23 -26 23 -72 25 -25 49 -40 65 -40 24 0 25 3
25 55 l0 55 -40 0 c-22 0 -40 5 -40 10 0 16 -15 12 -33 -8z m95 -47 c-5 -30
-16 -31 -42 -5 -27 27 -26 30 14 30 30 0 33 -2 28 -25z"/>
<path d="M2570 5145 c0 -27 2 -46 4 -44 8 8 10 78 3 85 -4 4 -7 -14 -7 -41z"/>
<path d="M3440 5109 c-52 -21 -70 -48 -70 -107 0 -47 2 -53 18 -47 9 3 30 9
45 12 34 7 87 69 87 102 0 23 -25 51 -45 50 -5 0 -21 -5 -35 -10z"/>
<path d="M705 4893 c-32 -8 -38 -19 -31 -57 6 -33 10 -36 41 -36 27 0 39 7 59
33 15 19 26 39 26 44 0 20 -45 28 -95 16z"/>
<path d="M3208 4833 c7 -3 16 -2 19 1 4 3 -2 6 -13 5 -11 0 -14 -3 -6 -6z"/>
<path d="M5584 4805 c3 -8 1 -15 -5 -15 -6 0 -7 -4 -4 -10 11 -18 25 -10 25
15 0 14 -5 25 -11 25 -6 0 -9 -7 -5 -15z"/>
<path d="M5132 4685 c0 -16 2 -22 5 -12 2 9 2 23 0 30 -3 6 -5 -1 -5 -18z"/>
<path d="M5186 4675 c-8 -33 -1 -44 24 -38 28 7 29 63 1 63 -12 0 -21 -9 -25
-25z"/>
<path d="M4327 4161 c3 -14 17 -22 45 -26 53 -9 60 1 9 15 -23 6 -41 15 -41
20 0 6 -4 10 -9 10 -5 0 -7 -9 -4 -19z"/>
<path d="M4184 4102 c-19 -11 -22 -82 -4 -82 6 0 10 13 10 30 0 26 4 30 38 36
35 7 35 8 12 15 -34 10 -43 10 -56 1z"/>
<path d="M4425 4100 c-3 -5 10 -18 29 -29 26 -16 39 -19 57 -12 24 10 24 10 2
10 -12 1 -26 7 -30 14 -10 17 -51 28 -58 17z"/>
<path d="M4311 4051 c-8 -5 -20 -7 -27 -4 -7 2 -24 -3 -39 -13 -31 -20 -31
-57 0 -63 11 -2 24 -9 28 -17 4 -8 14 -14 22 -14 21 0 28 -19 15 -35 -20 -25
5 -17 34 10 15 14 37 25 49 25 22 1 22 1 2 16 -13 9 -30 12 -50 8 l-30 -6 24
25 c23 25 23 27 7 52 -19 29 -17 28 -35 16z"/>
<path d="M4385 3980 c-4 -6 7 -10 25 -10 18 0 29 4 25 10 -3 6 -15 10 -25 10
-10 0 -22 -4 -25 -10z"/>
<path d="M4441 3937 c15 -14 27 -19 31 -12 16 22 7 35 -24 35 l-31 0 24 -23z"/>
<path d="M4506 3893 c12 -2 24 -13 27 -24 5 -17 12 -20 43 -17 49 4 55 23 7
23 -25 0 -37 4 -35 13 1 8 -9 12 -30 11 -22 -1 -26 -3 -12 -6z"/>
<path d="M5180 3861 c0 -22 5 -43 10 -46 6 -4 10 12 10 39 0 25 -4 46 -10 46
-5 0 -10 -18 -10 -39z"/>
<path d="M1888 3768 c-6 -17 3 -58 12 -58 8 0 20 34 20 58 0 16 -27 16 -32 0z"/>
<path d="M5201 3764 c0 -11 3 -14 6 -6 3 7 2 16 -1 19 -3 4 -6 -2 -5 -13z"/>
<path d="M1758 3622 c-49 -27 -62 -54 -36 -80 15 -15 -5 -78 -34 -105 -31 -30
5 -97 53 -97 20 0 63 41 85 82 7 15 24 28 36 30 14 2 24 11 25 23 3 24 -32 69
-47 60 -5 -3 -10 0 -11 7 -2 58 -7 90 -15 98 -5 4 -30 -3 -56 -18z"/>
<path d="M1202 3515 c0 -16 2 -22 5 -12 2 9 2 23 0 30 -3 6 -5 -1 -5 -18z"/>
<path d="M218 3504 c-10 -9 -10 -76 0 -90 4 -6 27 -14 52 -18 40 -6 49 -4 69
18 26 27 23 54 -9 74 -25 15 -102 27 -112 16z m63 -34 c24 -13 25 -30 2 -31
-15 0 -15 -2 2 -9 18 -8 17 -9 -7 -9 -25 -1 -28 3 -28 29 0 33 3 35 31 20z"/>
<path d="M4380 3481 c0 -24 25 -34 40 -16 15 18 5 35 -21 35 -12 0 -19 -7 -19
-19z"/>
<path d="M1162 3460 c0 -14 2 -19 5 -12 2 6 2 18 0 25 -3 6 -5 1 -5 -13z"/>
<path d="M2100 3354 c-25 -3 -54 -9 -65 -13 -11 -5 -31 -12 -45 -15 -132 -27
-198 -65 -230 -130 -11 -23 -20 -52 -20 -63 0 -12 -5 -23 -12 -25 -20 -7 -40
-250 -27 -333 6 -38 12 -84 15 -101 2 -17 13 -39 23 -48 18 -16 22 -16 72 1
30 9 57 17 61 15 4 -1 12 7 18 18 14 27 28 25 36 -5 3 -14 9 -25 13 -26 3 0
13 -2 21 -5 95 -26 192 -22 232 10 20 16 28 33 33 75 6 47 5 53 -9 48 -9 -4
-16 -2 -16 3 0 6 5 10 10 10 13 0 70 57 70 69 0 5 17 5 38 -1 20 -5 51 -9 68
-8 36 1 44 -15 44 -90 0 -60 15 -83 24 -38 5 25 9 29 15 18 18 -32 21 -98 7
-185 -7 -49 -11 -93 -9 -97 7 -13 50 -9 60 5 18 21 35 86 38 145 9 133 15 183
25 202 6 12 10 47 9 78 -1 31 1 82 6 112 6 47 9 51 16 32 5 -13 6 -34 3 -46
-3 -12 -1 -32 3 -44 7 -19 12 -8 22 54 10 51 11 82 4 93 -5 9 -6 27 -2 41 7
25 7 24 10 -5 1 -16 5 2 9 40 5 58 3 74 -12 94 -10 13 -18 32 -18 42 0 13 -7
19 -24 19 -33 0 -77 17 -90 36 -9 12 -47 15 -196 18 -102 2 -205 2 -230 0z
m383 -41 c-7 -2 -19 -2 -25 0 -7 3 -2 5 12 5 14 0 19 -2 13 -5z m132 -73 c3
-5 2 -10 -4 -10 -5 0 -13 5 -16 10 -3 6 -2 10 4 10 5 0 13 -4 16 -10z m45 -51
c0 -11 -4 -17 -10 -14 -5 3 -10 13 -10 21 0 8 5 14 10 14 6 0 10 -9 10 -21z
m-580 -84 c0 -16 -6 -25 -15 -25 -28 0 -18 40 13 49 1 1 2 -10 2 -24z m234 0
c15 -14 33 -25 40 -25 17 0 46 -43 46 -68 0 -10 9 -35 20 -57 23 -44 24 -48
11 -41 -5 4 -21 2 -35 -4 -20 -7 -26 -6 -26 5 0 7 4 16 9 19 14 9 1 45 -23 62
-14 11 -17 18 -8 21 20 8 13 23 -11 23 -13 0 -32 6 -42 14 -19 13 -134 14
-176 1 -23 -8 -24 3 -2 35 25 37 32 40 104 40 57 0 70 -4 93 -25z m-101 -72
c-27 -5 -29 -18 -5 -32 13 -8 9 -10 -23 -10 -27 0 -34 3 -22 8 10 4 18 11 18
16 0 5 -8 12 -18 16 -11 5 -1 7 27 7 25 0 35 -3 23 -5z m117 -128 c14 -17 7
-31 -21 -38 -15 -4 -19 -2 -15 10 3 8 6 21 6 29 0 18 14 18 30 -1z m50 -35 c0
-11 -4 -20 -10 -20 -5 0 -10 9 -10 20 0 11 5 20 10 20 6 0 10 -9 10 -20z
m-320 -46 c0 -2 -7 -4 -15 -4 -8 0 -15 4 -15 10 0 5 7 7 15 4 8 -4 15 -8 15
-10z"/>
<path d="M2295 3080 c-3 -5 1 -10 10 -10 9 0 13 5 10 10 -3 6 -8 10 -10 10 -2
0 -7 -4 -10 -10z"/>
<path d="M3410 3325 c0 -8 5 -15 10 -15 6 0 10 7 10 15 0 8 -4 15 -10 15 -5 0
-10 -7 -10 -15z"/>
<path d="M2839 3235 c-9 -24 -14 -47 -11 -50 7 -7 42 62 42 82 0 27 -16 11
-31 -32z"/>
<path d="M5193 3263 c-22 -8 -14 -43 12 -55 33 -15 52 1 36 30 -12 22 -30 31
-48 25z"/>
<path d="M970 3185 c0 -8 4 -15 10 -15 5 0 7 7 4 15 -4 8 -8 15 -10 15 -2 0
-4 -7 -4 -15z"/>
<path d="M4743 3173 c-9 -3 -13 -24 -12 -61 l1 -57 9 50 c4 28 16 55 25 62 13
10 14 13 3 12 -8 0 -20 -3 -26 -6z"/>
<path d="M2684 3125 c1 -59 16 -59 16 0 0 25 -4 45 -8 45 -5 0 -8 -20 -8 -45z"/>
<path d="M2835 3145 c4 -16 9 -49 12 -72 7 -56 19 -55 22 2 1 34 -3 52 -20 73
l-22 27 8 -30z"/>
<path d="M1005 3150 c3 -5 23 -10 43 -9 30 0 33 2 17 9 -28 12 -67 12 -60 0z"/>
<path d="M4813 3133 c9 -2 25 -2 35 0 9 3 1 5 -18 5 -19 0 -27 -2 -17 -5z"/>
<path d="M2888 3059 c-1 -34 0 -66 4 -73 4 -6 8 22 8 62 0 39 -2 72 -4 72 -2
0 -6 -27 -8 -61z"/>
<path d="M622 3085 c-4 -6 -16 -16 -26 -22 -19 -10 -19 -11 2 -17 11 -4 24
-16 27 -27 4 -10 11 -19 17 -19 5 0 7 7 4 16 -4 10 3 25 19 40 14 13 25 27 25
32 0 13 -60 10 -68 -3z"/>
<path d="M4862 3080 c0 -14 2 -19 5 -12 2 6 2 18 0 25 -3 6 -5 1 -5 -13z"/>
<path d="M3308 2893 c12 -2 30 -2 40 0 9 3 -1 5 -23 4 -22 0 -30 -2 -17 -4z"/>
<path d="M5473 2862 c-6 -4 -17 -20 -23 -36 -9 -24 -7 -32 7 -48 17 -19 17
-20 -2 -34 -10 -8 -13 -14 -6 -14 8 0 10 -7 6 -20 -9 -28 3 -25 28 6 48 62 73
140 45 141 -7 0 -20 3 -28 7 -8 3 -20 2 -27 -2z"/>
<path d="M2661 2834 c0 -11 3 -14 6 -6 3 7 2 16 -1 19 -3 4 -6 -2 -5 -13z"/>
<path d="M193 2813 c-7 -2 -13 -20 -13 -38 0 -25 5 -35 21 -40 29 -9 41 6 37
46 -3 33 -18 44 -45 32z"/>
<path d="M162 2770 c0 -14 2 -19 5 -12 2 6 2 18 0 25 -3 6 -5 1 -5 -13z"/>
<path d="M420 2629 c0 -5 5 -7 10 -4 6 3 10 8 10 11 0 2 -4 4 -10 4 -5 0 -10
-5 -10 -11z"/>
<path d="M303 2620 c-23 -9 -38 -43 -27 -61 4 -6 19 -9 38 -5 l31 6 -25 -15
-25 -14 38 -1 c25 0 36 4 32 11 -4 6 2 13 14 16 15 4 21 13 21 35 0 16 -4 27
-9 23 -5 -3 -12 -1 -16 5 -7 12 -42 12 -72 0z"/>
<path d="M0 2536 c0 -7 9 -16 20 -19 15 -4 20 -14 20 -36 0 -17 5 -31 10 -31
6 0 10 13 10 29 0 16 6 32 12 34 11 4 11 6 1 6 -7 1 -13 8 -13 16 0 10 -10 15
-30 15 -19 0 -30 -5 -30 -14z"/>
<path d="M0 2464 c0 -23 4 -34 9 -28 15 15 17 57 4 61 -9 3 -13 -7 -13 -33z"/>
<path d="M3226 2453 c-29 -3 -60 -12 -74 -24 -14 -10 -31 -19 -38 -19 -8 0
-22 -9 -32 -21 -32 -38 -73 -48 -174 -42 -51 3 -96 10 -99 15 -4 7 -8 6 -10
-1 -6 -17 -140 -26 -239 -15 -39 4 -66 1 -92 -10 -37 -16 -49 -38 -28 -51 6
-3 10 -14 10 -25 0 -24 60 -101 126 -161 16 -14 34 -34 40 -45 12 -20 22 -21
113 -11 34 4 58 12 63 21 5 9 16 16 23 16 8 0 15 5 15 10 0 6 5 10 10 10 6 0
10 -11 10 -25 0 -29 32 -49 75 -47 23 2 27 0 15 -8 -8 -6 -28 -10 -45 -9 -65
2 -81 -3 -35 -12 53 -11 96 -3 129 22 13 11 20 19 16 19 -4 0 -3 6 3 13 6 7 9
29 6 48 -7 41 7 57 56 62 20 3 46 17 66 36 23 21 43 31 64 31 17 0 39 9 50 20
11 11 24 20 29 20 9 0 23 31 26 55 1 6 5 27 9 47 11 49 1 89 -22 86 -9 -1 -39
-3 -66 -5z m54 -29 c0 -8 -4 -12 -10 -9 -5 3 -10 10 -10 16 0 5 5 9 10 9 6 0
10 -7 10 -16z m-302 -116 c-3 -7 -15 -15 -28 -16 -13 -2 -29 -11 -35 -19 -9
-12 -16 -13 -32 -5 -11 6 -23 9 -26 6 -3 -3 -16 1 -29 10 -12 9 -32 16 -45 16
-12 0 -24 3 -26 8 -3 4 47 8 110 10 89 2 114 -1 111 -10z"/>
<path d="M240 2260 c0 -5 5 -10 11 -10 5 0 7 5 4 10 -3 6 -8 10 -11 10 -2 0
-4 -4 -4 -10z"/>
<path d="M4525 2256 c-19 -14 -16 -15 36 -16 53 0 57 -2 61 -25 4 -19 -2 -31
-23 -50 -16 -13 -29 -29 -29 -36 0 -6 -8 -18 -17 -25 -10 -7 -16 -15 -13 -18
3 -3 24 11 45 30 22 19 50 37 62 40 29 8 31 52 6 83 -24 28 -100 39 -128 17z"/>
<path d="M4957 2239 c-10 -6 -22 -22 -28 -36 -13 -34 4 -53 47 -53 40 0 59 27
49 71 -7 31 -33 38 -68 18z m43 -38 c0 -6 -4 -13 -10 -16 -5 -3 -10 1 -10 9 0
9 5 16 10 16 6 0 10 -4 10 -9z"/>
<path d="M4459 2184 c-7 -22 9 -65 35 -98 27 -34 30 -8 3 32 -14 21 -27 50
-29 63 -3 23 -4 23 -9 3z"/>
<path d="M271 2033 c-1 -15 -7 -23 -19 -23 -21 0 -42 -18 -42 -37 0 -7 -13
-35 -30 -61 -23 -37 -30 -61 -30 -98 0 -58 14 -88 23 -52 4 12 7 38 7 56 0 18
11 50 25 72 14 22 25 46 25 54 0 8 14 25 30 38 27 21 29 27 21 49 -10 24 -10
24 -10 2z"/>
<path d="M7 2033 c-4 -3 -7 -80 -7 -170 0 -180 -3 -173 66 -145 27 11 39 22
36 31 -3 10 0 12 11 8 9 -3 19 -2 22 3 4 6 -2 10 -13 10 -23 0 -42 56 -42 124
0 30 -9 64 -25 96 -25 48 -34 57 -48 43z"/>
<path d="M5214 1805 c-3 -8 6 -29 21 -47 21 -25 25 -38 21 -62 -3 -17 -7 -40
-9 -51 -2 -11 -8 -19 -15 -17 -18 3 -16 -1 28 -48 36 -39 40 -48 40 -97 0 -38
-4 -55 -15 -59 -8 -4 -15 -15 -15 -25 0 -11 -10 -23 -22 -28 -14 -5 -17 -10
-10 -15 19 -12 15 -56 -5 -56 -13 0 -11 -5 10 -18 15 -9 27 -22 27 -28 0 -7 7
-14 15 -18 11 -4 15 -21 15 -65 0 -69 -13 -111 -34 -111 -22 0 -39 -36 -28
-57 5 -10 7 -23 5 -29 -2 -6 10 -17 26 -24 17 -7 35 -18 42 -26 15 -18 4 -59
-24 -87 -12 -12 -27 -31 -32 -42 -9 -16 -21 -20 -63 -20 -29 1 -52 -3 -52 -7
0 -4 27 -8 61 -8 37 0 58 -4 54 -10 -3 -5 -1 -10 4 -10 16 0 13 -42 -4 -67 -8
-12 -12 -28 -9 -36 3 -10 -2 -18 -14 -21 -21 -7 -52 2 -52 15 0 12 -53 59 -67
59 -14 0 -16 -22 -7 -57 4 -14 17 -24 38 -29 58 -12 82 -55 70 -130 -6 -42 -9
-45 -31 -41 -34 6 -38 -13 -14 -62 12 -22 21 -46 21 -52 0 -22 68 -79 87 -73
12 4 14 3 6 -3 -9 -6 -4 -14 20 -28 17 -10 34 -22 37 -26 13 -18 189 -110 238
-124 l22 -6 0 340 0 341 -30 0 c-21 0 -30 -5 -30 -16 0 -11 -8 -14 -32 -12
-31 3 -53 28 -24 28 35 0 64 19 59 38 -4 18 -7 19 -34 5 -27 -13 -32 -13 -54
1 -40 26 -26 70 27 89 11 4 17 15 15 29 -1 17 4 24 28 29 l30 7 -32 1 c-18 0
-33 6 -33 11 0 6 20 8 55 4 38 -5 55 -3 55 5 0 7 -23 11 -65 11 -69 0 -72 2
-78 51 -1 15 -9 35 -17 44 -9 11 -18 54 -22 109 -24 290 -27 353 -21 475 l6
134 -63 -6 c-47 -4 -69 -2 -86 10 -13 8 -21 19 -18 24 3 5 0 9 -6 9 -6 0 -13
-7 -16 -15z m96 -54 c0 -6 -4 -13 -10 -16 -5 -3 -10 1 -10 9 0 9 5 16 10 16 6
0 10 -4 10 -9z m32 -197 c-3 -19 -7 -22 -13 -12 -14 21 -11 48 5 42 8 -3 11
-15 8 -30z m25 -16 c-3 -7 -5 -2 -5 12 0 14 2 19 5 13 2 -7 2 -19 0 -25z m3
-190 l0 -173 -20 33 c-22 36 -25 46 -10 37 6 -3 10 4 10 17 1 13 3 57 6 99 3
60 1 79 -11 89 -20 17 -19 47 3 59 9 6 18 11 20 11 1 0 2 -78 2 -172z m-60
-39 c0 -16 -4 -29 -10 -29 -5 0 -10 16 -10 36 0 21 4 33 10 29 6 -3 10 -19 10
-36z m-12 -304 c-3 -34 -38 -35 -38 -1 0 23 17 38 32 29 4 -2 7 -15 6 -28z
m121 -18 c0 -21 -1 -21 -9 -2 -12 28 -12 37 0 30 6 -3 10 -16 9 -28z"/>
<path d="M5280 1800 c0 -5 5 -10 11 -10 5 0 7 5 4 10 -3 6 -8 10 -11 10 -2 0
-4 -4 -4 -10z"/>
<path d="M192 1760 c0 -14 2 -19 5 -12 2 6 2 18 0 25 -3 6 -5 1 -5 -13z"/>
<path d="M217 1703 c-4 -3 -7 -11 -7 -17 0 -6 5 -5 12 2 6 6 9 14 7 17 -3 3
-9 2 -12 -2z"/>
<path d="M191 1668 c0 -9 -8 -21 -16 -25 -8 -5 -16 -21 -17 -37 -2 -18 -10
-31 -24 -36 -28 -11 -40 -30 -20 -30 9 0 16 4 16 9 0 5 9 11 20 14 14 4 20 14
20 36 0 17 7 34 16 39 9 5 14 17 11 28 -4 16 -5 16 -6 2z"/>
<path d="M4528 1578 c5 -89 9 -97 11 -20 0 39 -2 72 -6 72 -5 0 -7 -24 -5 -52z"/>
<path d="M17 1566 c-16 -12 -17 -58 -16 -732 1 -529 4 -712 12 -691 6 15 16
27 23 27 6 0 14 7 18 15 3 8 12 15 21 15 27 0 55 38 55 74 0 31 3 34 34 40 46
9 89 -2 82 -20 -4 -10 3 -14 24 -14 16 0 33 -7 38 -16 7 -12 13 -14 28 -6 10
6 39 17 64 26 58 20 108 62 167 139 47 60 48 64 46 127 -2 101 -12 139 -37
145 -32 7 -184 1 -179 -7 2 -5 -1 -8 -6 -8 -6 0 -14 18 -17 40 -6 37 -24 57
-24 27 0 -7 -7 -22 -15 -33 -13 -16 -16 -17 -25 -4 -15 23 -12 36 13 48 22 11
22 11 -4 11 -21 1 -30 -7 -43 -33 -16 -34 -62 -56 -86 -41 -15 9 -12 78 5 101
8 10 15 26 15 34 0 12 9 15 38 12 20 -3 46 -11 57 -18 11 -8 34 -14 51 -14 28
0 31 -3 27 -24 -3 -13 0 -27 6 -30 7 -5 11 7 11 33 0 41 0 41 -39 41 -25 0
-41 5 -45 15 -3 8 -16 15 -30 15 -13 0 -39 8 -56 18 -29 16 -31 20 -27 60 3
24 12 51 22 62 16 18 16 20 -2 47 -14 20 -20 48 -21 98 -2 38 -7 72 -12 75 -5
3 -12 25 -16 48 -5 32 -11 42 -25 42 -15 0 -19 8 -20 38 0 58 -13 117 -24 112
-6 -3 -12 6 -13 20 -5 31 -22 52 -22 25 0 -28 -14 -9 -25 35 -9 34 -12 37 -28
26z m37 -112 c10 -9 16 -33 16 -58 0 -27 6 -48 15 -56 8 -7 15 -24 15 -38 0
-23 -3 -21 -29 19 -19 29 -30 61 -33 97 -3 28 -4 52 -2 52 1 0 10 -7 18 -16z
m86 -225 c0 -18 -4 -28 -10 -24 -5 3 -10 20 -10 36 0 18 4 28 10 24 6 -3 10
-20 10 -36z m318 -566 c-10 -2 -28 -2 -40 0 -13 2 -5 4 17 4 22 1 32 -1 23 -4z
m85 0 c-7 -2 -21 -2 -30 0 -10 3 -4 5 12 5 17 0 24 -2 18 -5z m7 -31 c0 -4
-21 -6 -47 -4 -76 5 -83 10 -15 11 34 0 62 -2 62 -7z m26 -57 c1 -8 -2 -15 -7
-15 -5 0 -9 10 -9 22 0 23 12 17 16 -7z"/>
<path d="M4907 1362 c-2 -4 -3 -32 -2 -62 1 -30 -3 -61 -8 -68 -9 -11 -6 -13
13 -10 23 3 25 7 28 69 2 52 0 68 -12 72 -9 4 -17 3 -19 -1z"/>
<path d="M1493 1310 c0 -30 2 -43 4 -27 2 15 2 39 0 55 -2 15 -4 2 -4 -28z"/>
<path d="M5090 969 c7 -11 14 -19 16 -16 7 7 -7 37 -17 37 -6 0 -5 -9 1 -21z"/>
<path d="M416 755 c-3 -8 -1 -15 4 -15 6 0 10 7 10 15 0 8 -2 15 -4 15 -2 0
-6 -7 -10 -15z"/>
<path d="M4931 703 c-1 -28 3 -54 8 -57 5 -3 6 16 4 42 -7 69 -11 74 -12 15z"/>
<path d="M5065 726 c-25 -38 -12 -141 21 -162 13 -9 28 -13 33 -9 6 3 9 0 6
-7 -3 -7 -1 -26 3 -43 l8 -30 8 35 c6 31 3 38 -24 62 -27 25 -30 34 -30 88 0
65 -1 64 68 62 17 -1 32 3 32 8 0 6 -8 10 -17 10 -10 0 -34 3 -55 6 -31 5 -38
3 -53 -20z"/>
<path d="M518 723 c12 -2 30 -2 40 0 9 3 -1 5 -23 4 -22 0 -30 -2 -17 -4z"/>
<path d="M5180 691 c0 -18 23 -35 33 -24 7 6 -15 43 -25 43 -5 0 -8 -9 -8 -19z"/>
<path d="M4951 614 c0 -11 3 -14 6 -6 3 7 2 16 -1 19 -3 4 -6 -2 -5 -13z"/>
</g>
</svg>
